# xmcd
#
# Track frame offsets: 
#        150
#        10593
#        24204
#        36493
#        47524
#        58255
#        70922
#        83992
#        100271
#        119313
#        131018
#        153236
#        164328
#        195609
#        208828
#        225033
#        263438
#        275443
#
# Disc length: 3803 seconds
#
# Revision: 0
# Processed by: cddbd v1.5.1PL0 Copyright (c) Steve Scherf et al.
# Submitted via: ExactAudioCopy v0.95a5
#
DISCID=e80ed912
DTITLE=Nine Below Zero - Live At The Venue
DYEAR=1900
DGENRE=
TTITLE0=Tore Down
TTITLE1=Straighten Her Out
TTITLE2=Homework
TTITLE3=Just A Little Bit
TTITLE4=My Babe
TTITLE5=I Can´t Help Myself
TTITLE6=Rocket 88
TTITLE7=Can I Get A Witness
TTITLE8=Riding On The ´´L And M´´ 
TTITLE9=I Can´t Quit You Baby
TTITLE10=Stormy Monday
TTITLE11=The Hootchie Cootchie Coo
TTITLE12=I´ve Got My Mojo Working  
TTITLE13=Is That You
TTITLE14=Treat Her Right
TTITLE15=Keep On Knocking
TTITLE16=Watch Yourself
TTITLE17=Round And Round
EXTD=
EXTT0=
EXTT1=
EXTT2=
EXTT3=
EXTT4=
EXTT5=
EXTT6=
EXTT7=
EXTT8=
EXTT9=
EXTT10=
EXTT11=
EXTT12=
EXTT13=
EXTT14=
EXTT15=
EXTT16=
EXTT17=
PLAYORDER=
